<svg version="1.1" id="Capa_1" xmlns="http://www.w3.org/2000/svg" x="0" y="0" width="488.839" height="488.839" viewBox="0 0 488.839 488.839" xml:space="preserve"><g id="_x31_4_26_"><path d="M264.32 39.487c5.53-7.328 4.64-22.87 3.853-36.582-.03-.59-.063-1.17-.096-1.756C260.327.41 252.482 0 244.542 0c-30.425 0-59.537 5.605-86.406 15.766 19.167 9.21 48.836 25.065 81.814 48.49 11.252-9.683 19.738-18.622 24.37-24.77zM388.163 178.955c-12.047 1.36-22.207 3.338-30.896 6.11C398.804 257.59 415 349.212 418.962 415.59c41.15-41.928 67.283-98.61 69.754-161.393-28.354-34.852-65.916-79.17-100.553-75.24zM141.232 116.356c29.185-6.073 56.604-20.762 78.466-36.267-45.608-31.413-83.648-47.715-91.215-50.818-47.317 25.58-85.18 66.334-107.21 115.715 28.633-11.408 59.642-17.212 90.1-22.867 9.852-1.83 20.037-3.72 29.86-5.764z"/><path d="M310.17 123.463a492.9 492.9 0 0 1 7.784 7.994c9.52 9.995 18.16 20.927 26.082 32.493 11.537-4.356 25.12-7.445 41.377-9.283 38.307-4.333 72.37 26.012 101.604 59.42-6.268-50.645-27.99-96.482-60.354-132.63-17.666 2.128-37.36 5.735-57.435 11.725-13.168 3.933-34.14 14.62-59.057 30.28zM278.01 249.688c10.026-33.955 21.638-58.432 44.136-74.32-6.752-9.693-14.018-18.79-21.89-27.054-3.64-3.824-7.322-7.517-11.02-11.145-90.263 61.438-213.906 174.3-225.15 272.085 37.53 41.062 88.893 69.222 146.713 77.21 21.052-41.914 40.867-127.123 52.645-177.8 5.66-24.34 10.543-45.358 14.566-58.977z"/><path d="M175.668 195.843c31.472-29 64.708-55.007 95.107-75.908A524.395 524.395 0 0 0 240.5 95.127c-25.25 18.98-58.307 37.674-94.29 45.158-10.078 2.097-20.397 4.014-30.373 5.866C77.4 153.29 40.5 160.203 9.47 177.516 3.43 198.785.124 221.212.124 244.42c0 51.917 16.238 100.02 43.84 139.604 17.88-70.797 79.212-139.81 131.705-188.18zM291.83 105.975c29.077-18.538 54.146-31.356 70.41-36.21 14.607-4.363 28.935-7.54 42.503-9.857C373.39 32.663 335.065 13.245 292.757 4.78c.938 17.07 1.347 35.812-8.922 49.428-4.88 6.466-13.133 15.334-23.873 24.955a543.342 543.342 0 0 1 31.867 26.812zM301.45 256.61c-3.816 12.927-8.63 33.624-14.2 57.587-16.443 70.755-32.178 134.067-50.554 174.442 2.61.082 5.217.198 7.846.198 56.963 0 109.328-19.54 150.885-52.206-1.64-69.46-18.293-167.71-60.238-240.643-16.27 12.09-25.025 31.11-33.74 60.62z"/></g></svg>